<?xml version="1.0" encoding="UTF-8" standalone="no"?>
<!-- Generator: Adobe Illustrator 19.1.0, SVG Export Plug-In . SVG Version: 6.00 Build 0)  -->

<svg
   xmlns:dc="http://purl.org/dc/elements/1.1/"
   xmlns:cc="http://creativecommons.org/ns#"
   xmlns:rdf="http://www.w3.org/1999/02/22-rdf-syntax-ns#"
   xmlns:svg="http://www.w3.org/2000/svg"
   xmlns="http://www.w3.org/2000/svg"
   xmlns:sodipodi="http://sodipodi.sourceforge.net/DTD/sodipodi-0.dtd"
   xmlns:inkscape="http://www.inkscape.org/namespaces/inkscape"
   version="1.1"
   id="Layer_1"
   x="0px"
   y="0px"
   viewBox="0 0 78.814468 79.900002"
   xml:space="preserve"
   sodipodi:docname="Influxdb.svg"
   width="78.814468"
   height="79.900002"
   inkscape:version="0.92.5 (2060ec1f9f, 2020-04-08)"><metadata
   id="metadata68"><rdf:RDF><cc:Work
       rdf:about=""><dc:format>image/svg+xml</dc:format><dc:type
         rdf:resource="http://purl.org/dc/dcmitype/StillImage" /></cc:Work></rdf:RDF></metadata><defs
   id="defs66">
	<linearGradient
   y2="125"
   x2="483.08841"
   y1="125"
   x1="205.32381"
   gradientUnits="userSpaceOnUse"
   id="symbol_1_"
   gradientTransform="translate(-163.7965,-85.1)">
		<stop
   id="stop4"
   style="stop-color:#4591ED"
   offset="0" />
		<stop
   id="stop6"
   style="stop-color:#00C9FF"
   offset="1" />
	</linearGradient>
	
	
</defs><sodipodi:namedview
   pagecolor="#ffffff"
   bordercolor="#666666"
   borderopacity="1"
   objecttolerance="10"
   gridtolerance="10"
   guidetolerance="10"
   inkscape:pageopacity="0"
   inkscape:pageshadow="2"
   inkscape:window-width="640"
   inkscape:window-height="480"
   id="namedview64"
   showgrid="false"
   inkscape:zoom="0.41369048"
   inkscape:cx="172.2035"
   inkscape:cy="40"
   inkscape:window-x="0"
   inkscape:window-y="0"
   inkscape:window-maximized="0"
   inkscape:current-layer="Layer_1" />
<style
   type="text/css"
   id="style2">
	.st0{fill:url(#symbol_1_);}
	.st1{fill:url(#SVGID_1_);}
	.st2{fill:url(#SVGID_2_);}
	.st3{fill:url(#SVGID_3_);}
	.st4{fill:url(#SVGID_4_);}
	.st5{fill:url(#SVGID_5_);}
	.st6{fill:url(#SVGID_6_);}
	.st7{fill:url(#SVGID_7_);}
</style>
<path
   inkscape:connector-curvature="0"
   style="fill:url(#symbol_1_)"
   d="m 78.703503,48.2 -7.6,-33.2 c -0.4,-1.8 -2.1,-3.6 -3.9,-4.1 l -34.9,-10.7 c -0.5,-0.1 -1,-0.2 -1.5,-0.2 -1.5,0 -3.1,0.6 -4,1.5 l -25,23.2 c -1.3,1.2 -2.1,3.6 -1.7,5.4 l 8.1,35.5 c 0.4,1.8 2.1,3.6 3.9,4.1 l 32.6,10 c 0.5,0.1 1,0.2 1.5,0.2 1.5,0 3.1,-0.6 4,-1.5 l 26.7,-24.8 c 1.5,-1.2 2.2,-3.6 1.8,-5.4 z m -42.8,-40.2 23.9,7.3 c 0.9,0.3 0.9,0.7 0,0.9 l -12.6,2.9 c -1,0.2 -2.3,-0.2 -2.9,-0.9 l -8.8,-9.5 c -0.7,-0.6 -0.5,-0.9 0.4,-0.7 z m 14.9,42.9 c 0.2,1 -0.4,1.5 -1.3,1.2 l -25.8,-7.9 c -0.9,-0.3 -1.1,-1.1 -0.4,-1.7 l 19.8,-18.4 c 0.7,-0.7 1.5,-0.4 1.7,0.5 z m -42.5,-23.4 21,-19.5 c 0.7,-0.7 1.8,-0.6 2.5,0.1 l 10.5,11.3 c 0.7,0.7 0.6,1.8 -0.1,2.5 l -21,19.5 c -0.7,0.7 -1.8,0.6 -2.5,-0.1 l -10.5,-11.3 c -0.6,-0.7 -0.6,-1.8 0.1,-2.5 z m 5.1,31 -5.6,-24.3 c -0.2,-1 0.1,-1.1 0.8,-0.4 l 8.8,9.5 c 0.7,0.7 1,2.1 0.7,3 l -3.8,12.3 c -0.2,0.8 -0.7,0.8 -0.9,-0.1 z m 30.7,14.1 -27.3,-8.4 c -0.9,-0.3 -1.5,-1.3 -1.2,-2.2 l 4.5,-14.8 c 0.3,-0.9 1.3,-1.5 2.2,-1.2 l 27.3,8.4 c 0.9,0.3 1.5,1.3 1.2,2.2 l -4.5,14.8 c -0.3,1 -1.3,1.5 -2.2,1.2 z m 24.3,-19.9 -18.3,17 c -0.7,0.7 -1.1,0.4 -0.8,-0.5 l 3.8,-12.3 c 0.3,-0.9 1.3,-1.9 2.3,-2.1 l 12.6,-2.9 c 0.9,-0.2 1.1,0.2 0.4,0.8 z m 2,-3.6 -15.1,3.4 c -1,0.2 -1.9,-0.4 -2.1,-1.3 l -6.4,-27.9 c -0.2,-1 0.4,-1.9 1.3,-2.1 l 15.1,-3.4 c 1,-0.2 1.9,0.4 2.1,1.3 l 6.4,27.9 c 0.2,0.9 -0.4,1.9 -1.3,2.1 z"
   class="st0"
   id="symbol_2_" />
</svg>